# xmcd
#
# Track frame offsets:
#	150
#	17602
#	37164
#	53252
#	70837
#	88134
#	108772
#	120482
#	135936
#	147473
#	165769
#	186005
#
# Disc length: 2736 seconds
#
# Revision: 0
# Processed by: cddbd v1.5.2PL0 Copyright (c) Steve Scherf et al.
# Submitted via: EasyCDDAExtractor 12.0.1.1
#
DISCID=900aae0c
DTITLE=Willie Nelson - Stardust [Bonus Tracks]
DYEAR=1999
DGENRE=Country
TTITLE0=Stardust
TTITLE1=Georgia On My Mind
TTITLE2=Blue Skies
TTITLE3=All Of Me
TTITLE4=Unchained Melody
TTITLE5=September Song
TTITLE6=On The Sunny Side Of The Street
TTITLE7=Moonlight In Vermont
TTITLE8=Don't Get Around Much Anymore
TTITLE9=Someone To Watch Over Me
TTITLE10=Scarlet Ribbons
TTITLE11=I Can See Clearly Now
EXTD=YEAR: 1978\n
EXTT0=
EXTT1=
EXTT2=
EXTT3=
EXTT4=
EXTT5=
EXTT6=
EXTT7=
EXTT8=
EXTT9=
EXTT10=
EXTT11=
PLAYORDER=
